<?xml version="1.0" encoding="UTF-8"?>
<svg width="800mm" height="800mm" version="1.1" viewBox="0 0 800 800" xmlns="http://www.w3.org/2000/svg">
 <path id="Selection" d="m542.42 393.16v-56.745c0-4.2058 0.55196-9.4688 2.2144-13.352 5.7862-13.463 20.952-17.024 32.278-8.3115l19.226 18.971 38.598 38.331c3.995 4.0056 17.235 18.314 21.186 20.072 2.7702 1.2235 5.9295 1.0237 8.889 1.0342h109.04c18.426-0.0394 25.558-8.8012 25.591-26.704v-119.05c0-17.012-7.0768-25.569-24.479-25.591h-101.25-416.13v-75.66c-0.13132-14.453-8.5341-23.477-23.366-22.52-11.973 0.76748-22.989 15.466-31.155 23.633 0 0-70.097 70.097-70.097 70.097s-60.083 60.083-60.083 60.083c-5.0845 5.0848-17.313 15.911-19.305 22.253-0.78851 2.5145-0.77536 6.242-0.69652 8.9012 0.3154 11.828 8.9232 17.847 16.667 25.591l43.394 43.394c3.6271 3.6273 12.406 13.33 16.69 14.91 2.1578 0.80164 5.463 0.66758 7.789 0.66758h405.01zm0 184.7v74.548c0 2.9486-0.13146 6.0417 0.70966 8.9012 3.7388 12.962 18.682 18.47 30.442 12.718 5.3066-2.5813 16.389-14.642 21.141-19.394 0 0 99.026-99.026 99.026-99.026s32.267-32.267 32.267-32.267l17.335-17.803c10.716-14.253 0.80162-38.398-22.898-34.125-6.898 1.2458-10.848 6.0417-15.577 10.759l-22.254 22.253s-38.942 38.943-38.942 38.943l-57.858 57.858v-66.759h-541.86v-104.59c-0.01337-4.7399 0.24958-7.911-2.192-12.228-6.9664-12.306-24.078-15.032-34.415-5.3408-6.2751 5.886-6.7758 12.885-6.7863 20.907v117.94c0 17.569 6.0083 26.67 24.478 26.704h101.25 416.13z" fill="#ccc"/>
</svg>
